<svg xmlns="http://www.w3.org/2000/svg" width="35.019" height="35.019" viewBox="0 0 35.019 35.019">
  <path id="Path_240" data-name="Path 240" d="M19.01,11.894c-2.948,0-5.337,1.592-5.337,3.558s2.389,3.558,5.337,3.558,5.337,1.592,5.337,3.558-2.389,3.558-5.337,3.558m0-14.231a6.181,6.181,0,0,1,4.623,1.779M19.01,11.894V10.115m0,1.779V26.125m0,0V27.9m0-1.779a6.181,6.181,0,0,1-4.623-1.779M35.019,19.01A16.01,16.01,0,1,1,19.01,3,16.01,16.01,0,0,1,35.019,19.01Z" transform="translate(-1.5 -1.5)" fill="none" stroke="#219ebc" stroke-linecap="round" stroke-linejoin="round" stroke-width="3"/>
</svg>
