<svg xmlns="http://www.w3.org/2000/svg" width="47.284" height="30.307" viewBox="0 0 47.284 30.307">
  <path id="on-time-delivery" d="M34.837,9.365l-3.283-.023V4.927a2.39,2.39,0,0,0-2.383-2.383H19.514a11.567,11.567,0,0,1,.77,1.293h8.9a1.1,1.1,0,0,1,.77.319,1.089,1.089,0,0,1,.319.77V25.149H26.634a.647.647,0,1,0,0,1.289h4.288a.643.643,0,0,0,.631-.65v-.727h2.61c.3-6.72,9.946-7.648,10.931,0h2.117c.547-6.543-2.694-9.1-7.609-9.676A17.621,17.621,0,0,0,37.808,11c-.908-1.678-1.12-1.609-2.987-1.64ZM6.254,7.717,7.975,7.7l.127.031a6.674,6.674,0,0,1,.978.689,6.258,6.258,0,0,1,.631.608,40.365,40.365,0,0,1,2.51-3.464,44.648,44.648,0,0,1,3.2-3.518l.169-.062h1.874l-.385.42a62.387,62.387,0,0,0-3.961,5,54.315,54.315,0,0,0-3.1,4.988l-.235.454-.216-.466a11.266,11.266,0,0,0-1.451-2.348A9.43,9.43,0,0,0,6.116,8.175l.139-.458Zm7.209,7.394a.616.616,0,1,1-1.066.616l-.335-.577a.616.616,0,1,1,1.066-.616l.335.577ZM5.542,3.891a.616.616,0,1,1,1.066-.616l.335.577a.616.616,0,1,1-1.066.616Zm10.177,8.495a.624.624,0,1,1-.616,1.085l-.577-.335a.616.616,0,1,1,.616-1.066l.577.335ZM3.267,6.62a.617.617,0,1,1,.616-1.07l.577.335a.617.617,0,0,1-.62,1.066L3.263,6.62Zm13.06,2.263a.62.62,0,1,1,0,1.236h-.67a.62.62,0,0,1,0-1.236ZM2.659,10.119a.62.62,0,1,1,0-1.236h.666a.62.62,0,1,1,0,1.236Zm1.224,3.352a.616.616,0,1,1-.616-1.066l.577-.335a.616.616,0,1,1,.616,1.066l-.577.335Zm2.725,2.275a.616.616,0,1,1-1.066-.616l.335-.577a.616.616,0,1,1,1.066.616l-.335.577ZM8.875,2.667a.62.62,0,1,1,1.236,0v.67a.62.62,0,0,1-1.236,0v-.67Zm1.236,13.668a.62.62,0,1,1-1.236,0v-.666a.62.62,0,1,1,1.236,0ZM9.491,0a9.484,9.484,0,0,1,4.276,1.012c-.25.246-.516.523-.77.812a8.433,8.433,0,1,0,3.93,3.707c.242-.3.489-.6.731-.885A9.5,9.5,0,1,1,9.491,0ZM13.34,25.145a.647.647,0,0,1,0,1.293H6.466A2.336,2.336,0,0,1,4.784,25.7a2.494,2.494,0,0,1-.7-1.713V20.438a12.359,12.359,0,0,0,1.3.55v3a1.2,1.2,0,0,0,.339.824,1.047,1.047,0,0,0,.751.335h6.859ZM19.9,21.554A4.376,4.376,0,1,0,23,22.843,4.376,4.376,0,0,0,19.9,21.554Zm0,2.694a1.682,1.682,0,1,0,1.682,1.682A1.682,1.682,0,0,0,19.9,24.249Zm19.738-3.322A4.376,4.376,0,1,0,44.013,25.3a4.376,4.376,0,0,0-4.376-4.376ZM37.947,25.3a1.685,1.685,0,1,1,.008,0ZM35.152,11.231,33.182,11.2v4.2h4.176a16.216,16.216,0,0,0-2.205-4.157Z" transform="translate(0.013 0)" fill="#219ebc" fill-rule="evenodd"/>
</svg>
