<svg xmlns="http://www.w3.org/2000/svg" width="36.091" height="36.09" viewBox="0 0 36.091 36.09">
  <path id="Colored_home" data-name="Colored home" d="M21.64,2.661a2.256,2.256,0,0,0-3.19,0L2.661,18.45a2.255,2.255,0,1,0,3.19,3.19l.661-.661V35.835A2.256,2.256,0,0,0,8.767,38.09h4.511a2.256,2.256,0,0,0,2.256-2.256V31.323a2.256,2.256,0,0,1,2.256-2.256H22.3a2.256,2.256,0,0,1,2.256,2.256v4.511a2.256,2.256,0,0,0,2.256,2.256h4.511a2.256,2.256,0,0,0,2.256-2.256V20.979l.661.661a2.255,2.255,0,1,0,3.19-3.19L21.64,2.661Z" transform="translate(-2 -2)" fill="#35b2d0"/>
</svg>
