



<svg xmlns="http://www.w3.org/2000/svg" width="300" height="100" viewBox="0 0 78.175 27.649">
  <g id="Kaido" transform="translate(0.005)">
    <path id="Path_278" data-name="Path 278" d="M28.51,6.713V0H29.5V2.834a1.659,1.659,0,0,1,.65-.629,1.846,1.846,0,0,1,.916-.23,1.685,1.685,0,0,1,1.307.539,2.238,2.238,0,0,1,.474,1.555V6.727h-.981V4.156q0-1.343-1.078-1.34a1.21,1.21,0,0,0-.927.391A1.552,1.552,0,0,0,29.5,4.324V6.713Z" transform="translate(-18.273)" fill="#023047"/>
    <path id="Path_279" data-name="Path 279" d="M45.686,10.348a2.356,2.356,0,0,1-1.207-.305,2.155,2.155,0,0,1-.822-.84,2.557,2.557,0,0,1-.3-1.261,2.683,2.683,0,0,1,.291-1.275,2.155,2.155,0,0,1,.822-.858A2.378,2.378,0,0,1,45.7,5.5a2.241,2.241,0,0,1,1.185.305,2.155,2.155,0,0,1,.783.8,2.234,2.234,0,0,1,.277,1.11v.438H44.35a1.437,1.437,0,0,0,.445,1.02,1.333,1.333,0,0,0,.916.359,1.214,1.214,0,0,0,.718-.19,1.135,1.135,0,0,0,.391-.528h.988a2.1,2.1,0,0,1-.74,1.078,2.155,2.155,0,0,1-1.383.453Zm0-4.037a1.394,1.394,0,0,0-.876.295,1.268,1.268,0,0,0-.463.869h2.608a1.178,1.178,0,0,0-.381-.858A1.279,1.279,0,0,0,45.686,6.311Z" transform="translate(-27.788 -3.523)" fill="#023047"/>
    <path id="Path_280" data-name="Path 280" d="M58.148,12.487l1.11-2.435h-.269L57.16,5.81h1.077l1.415,3.423L61.136,5.81h1.045l-2.988,6.677Z" transform="translate(-36.633 -3.723)" fill="#023047"/>
    <path id="Path_281" data-name="Path 281" d="M70.19,17.822l.542-2.2h.977l-.869,2.2Z" transform="translate(-44.983 -10.01)" fill="#023047"/>
    <path id="Path_282" data-name="Path 282" d="M59,31.58h0a1.684,1.684,0,0,0-1.677,1.537,8.1,8.1,0,1,0,0,13.131A1.688,1.688,0,0,0,59,47.785h0A1.688,1.688,0,0,0,60.686,46.1V33.271A1.688,1.688,0,0,0,59,31.58ZM52.587,44.406a4.719,4.719,0,1,1,4.719-4.719A4.719,4.719,0,0,1,52.587,44.406Z" transform="translate(-28.5 -20.237)" fill="#ffefa1"/>
    <rect id="Rectangle_102" data-name="Rectangle 102" width="3.38" height="16.206" rx="1.69" transform="translate(35.565 11.343)" fill="#ffefa1"/>
    <path id="Path_283" data-name="Path 283" d="M100.395,11.7a1.882,1.882,0,1,0,1.334.547A1.882,1.882,0,0,0,100.395,11.7Z" transform="translate(-63.138 -7.498)" fill="#ffefa1"/>
    <path id="Path_284" data-name="Path 284" d="M1.688,11.66A1.688,1.688,0,0,0,0,13.348V33.332a1.692,1.692,0,1,0,3.38,0V13.348A1.688,1.688,0,0,0,1.688,11.66Z" transform="translate(0 -7.472)" fill="#ffefa1"/>
    <path id="Path_285" data-name="Path 285" d="M16.579,42.287h0L14.187,39.9l2.388-2.388h0l2.83-2.83a1.692,1.692,0,0,0-2.388-2.374l-2.827,2.827h0L11.8,37.521,9.41,39.9,11.8,42.287l2.388,2.388h0l2.83,2.827a1.685,1.685,0,0,0,1.192.5h0a1.692,1.692,0,0,0,1.2-2.873Z" transform="translate(-6.033 -20.453)" fill="#ffefa1"/>
    <path id="Path_286" data-name="Path 286" d="M133.835,13.488a1.7,1.7,0,0,0-3.394,0V20.5c-.158-.115-.323-.226-.492-.33l-.047-.025a8.168,8.168,0,0,0-1.645-.765h-.029c-.129-.043-.266-.079-.4-.115s-.212-.057-.32-.083-.233-.05-.359-.072-.28-.047-.42-.065-.2-.029-.3-.036c-.219-.022-.442-.032-.664-.032h-.079a8.139,8.139,0,1,0,8.139,8.139V13.488ZM125.7,31.842a4.741,4.741,0,0,1-4.752-4.737h0a4.741,4.741,0,1,1,9.478,0h0A4.748,4.748,0,0,1,125.7,31.842Z" transform="translate(-75.333 -7.605)" fill="#ffefa1"/>
    <path id="Path_287" data-name="Path 287" d="M174.1,22.927h12.819a1.717,1.717,0,1,0,0-3.434h-2.848a8.406,8.406,0,0,0,1.049-1.207c1.534-2.155,1.8-4.421.589-5.28s-3.265.119-4.8,2.27a8.015,8.015,0,0,0-1.077,2.008,5.169,5.169,0,0,0-1.052-.988c-1.552-1.11-3.25-1.207-3.951-.23a1.887,1.887,0,0,0,0,1.993,4.572,4.572,0,0,0,1.2,1.437h-1.936a1.717,1.717,0,0,0,0,3.434Zm8-6.8c1.146-1.6,2.439-2.155,2.762-1.929s.212,1.634-.93,3.233a5.916,5.916,0,0,1-1.8,1.713c-.485.269-.833.3-.952.212-.32-.226-.226-1.631.916-3.229Zm-6.066.79a.431.431,0,0,1,.284-.065,2.952,2.952,0,0,1,1.627.621c1.042.743,1.232,1.519,1.157,1.623h0a.809.809,0,0,1-.5.047,3.355,3.355,0,0,1-1.415-.593,3.394,3.394,0,0,1-1.042-1.135C175.987,17.094,176.016,16.936,176.026,16.918Z" transform="translate(-110.464 -8.136)" fill="#ffefa1"/>
    <path id="Path_288" data-name="Path 288" d="M188.59,48.2v-.047a7.9,7.9,0,0,0-.119-.783A1.71,1.71,0,0,0,186.8,46a1.688,1.688,0,0,0-1.659,2.033,5.079,5.079,0,0,1,.1.973,4.745,4.745,0,0,1-9.486,0,4.565,4.565,0,0,1,.1-.973A1.688,1.688,0,0,0,174.2,46h0a1.7,1.7,0,0,0-1.667,1.372,7.958,7.958,0,0,0-.165,1.616h0a.153.153,0,0,0,0,.018,8.132,8.132,0,0,0,6.789,8.02s0-.025,0-.04a7.927,7.927,0,0,0,1.347.122,4.577,4.577,0,0,0,.7-.036v.036a7.96,7.96,0,0,0,.981-.144.417.417,0,0,1,.018-.039,8.093,8.093,0,0,0,1.706-.578v.04a8.132,8.132,0,0,0,4.669-6.555s0-.032,0-.047c.025-.255.043-.514.043-.776v-.036A5.563,5.563,0,0,0,188.59,48.2Z" transform="translate(-110.463 -29.478)" fill="#ffefa1"/>
  </g>
</svg>
