<svg xmlns="http://www.w3.org/2000/svg" width="21.569" height="30.443" viewBox="0 0 21.569 30.443">
  <g id="Layer_2" data-name="Layer 2" transform="translate(0.113 0.002)">
    <g id="Calque_2" data-name="Calque 2" transform="translate(-0.113 -0.002)">
      <path id="Path_243" data-name="Path 243" d="M2.327,13.506H19.25a2.27,2.27,0,0,0,0-4.527H15.424a11.376,11.376,0,0,0,1.441-1.607c2.028-2.831,2.372-5.828.778-6.963s-4.31.153-6.376,3a10.929,10.929,0,0,0-1.4,2.653,6.517,6.517,0,0,0-1.39-1.275c-2.04-1.467-4.285-1.594-5.216-.306a2.551,2.551,0,0,0,0,2.627,6.045,6.045,0,0,0,1.62,1.824H2.327a2.27,2.27,0,1,0,0,4.527ZM12.886,4.579c1.5-2.117,3.214-2.844,3.635-2.551S16.8,4.2,15.245,6.3a7.779,7.779,0,0,1-2.334,2.219c-.638.357-1.1.4-1.275.281-.408-.306-.268-2.155,1.25-4.272Zm-8.009.995a.536.536,0,0,1,.37-.089,3.9,3.9,0,0,1,2.142.893c1.377.931,1.632,1.951,1.569,2.091h0a1.027,1.027,0,0,1-.65.064,4.412,4.412,0,0,1-1.9-.816,4.578,4.578,0,0,1-1.39-1.5C4.813,5.8,4.852,5.6,4.877,5.573Z" transform="translate(0.113 0.002)" fill="#219ebc"/>
      <path id="Path_244" data-name="Path 244" d="M21.425,15.293v-.064a8.736,8.736,0,0,0-.166-1.033,2.257,2.257,0,0,0-2.206-1.836,2.219,2.219,0,0,0-2.181,2.691A6.045,6.045,0,0,1,17,16.326a6.262,6.262,0,0,1-12.51,0,6.045,6.045,0,0,1,.128-1.275A2.232,2.232,0,0,0,2.423,12.36h0A2.27,2.27,0,0,0,.217,14.171,10.8,10.8,0,0,0,0,16.313H0A10.725,10.725,0,0,0,8.926,26.885h0a11.592,11.592,0,0,0,1.773.153h.931a10.815,10.815,0,0,0,1.275-.191h0a10.6,10.6,0,0,0,2.244-.765h0a10.725,10.725,0,0,0,6.172-8.646v-.051a9.106,9.106,0,0,0,0-1.02h0A8.928,8.928,0,0,0,21.425,15.293Z" transform="translate(0.145 3.405)" fill="#219ebc"/>
    </g>
  </g>
</svg>
