<svg xmlns="http://www.w3.org/2000/svg" width="34.257" height="43.187" viewBox="0 0 34.257 43.187">
  <path id="Path_235" data-name="Path 235" d="M13.93,7.465H9.465A4.465,4.465,0,0,0,5,11.93V38.722a4.465,4.465,0,0,0,4.465,4.465H31.791a4.465,4.465,0,0,0,4.465-4.465V11.93a4.465,4.465,0,0,0-4.465-4.465H27.326m-13.4,0A4.465,4.465,0,0,0,18.4,11.93h4.465a4.465,4.465,0,0,0,4.465-4.465m-13.4,0A4.465,4.465,0,0,1,18.4,3h4.465a4.465,4.465,0,0,1,4.465,4.465m-6.7,15.628h6.7m-6.7,8.93h6.7m-13.4-8.93h.022m-.022,8.93h.022" transform="translate(-3.5 -1.5)" fill="none" stroke="#fbfbfb" stroke-linecap="round" stroke-linejoin="round" stroke-width="3"/>
</svg>
